<?xml version="1.0" standalone="no"?><!DOCTYPE svg PUBLIC "-//W3C//DTD SVG 1.1//EN" "http://www.w3.org/Graphics/SVG/1.1/DTD/svg11.dtd"><svg class="icon" width="200px" height="200.00px" viewBox="0 0 1024 1024" version="1.1" xmlns="http://www.w3.org/2000/svg"><path d="M733.437727 651.525877c-9.788344-14.855552-21.812853-25.171197-37.373862-31.536692 23.046635-40.497736 27.882445-114.950582 27.351049-218.404978-1.059721-198.539556-25.111811-275.762011-85.888621-275.46918-60.655991 0.35324-83.941191 77.872622-82.882493 276.353816 0.531396 110.646168 12.145328 183.03486 35.783768 220.822372-18.510823 8.133745-33.661254 20.161326-43.386117 36.607996-7.075048 11.789016-9.667525 24.287584-9.667525 36.782057 0 20.985554 7.427264 41.85336 13.37911 58.830403l2.356984 6.721807c6.60406 18.98181 14.444974 62.899323 14.444974 85.417633 0 5.067208-0.41365 9.018382-1.298287 11.435775l3.30203-4.06892c-6.308157 7.840914-8.254563 20.514566-2.477802 28.708721 5.776761 8.251492 14.680468 13.321772 24.169837 10.138512l8.490057-2.88838c27.882445-9.371622 30.182092-10.138512 48.279265-22.871551l15.383877-10.668885c40.144496-27.233302 71.860368-69.559697 80.938135-107.875534 9.078791-38.790919 5.245365-73.629641-10.904379-98.034972z" fill="#515151" /><path d="M637.821172 171.387141c6.483242 0 39.143136 10.90745 40.31958 230.432559 0.117747 20.33641 0.235494 51.110308-1.177468 82.939831-23.520694-6.954229-48.634553-6.247748-73.746364 1.828659-1.885997-23.463356-3.123874-50.992561-3.30203-84.35484-1.119107-213.98589 28.709745-230.7858 37.906282-230.846209z" fill="#cdcdcd" /><path d="M674.959541 516.592126c-3.362439 39.439039-10.081175 75.336458-23.463357 88.601916-3.184283 3.123874-6.308157 4.421137-10.729294 4.361752-0.292831 0-22.928888-1.943334-34.364663-91.487226 23.695778-9.021454 47.159134-9.549778 68.557314-1.476442z" fill="#FFFFFF" /><path d="M700.246436 739.182748c-6.365495 27.00088-31.94727 60.245413-62.25018 80.761002l-16.03302 11.142944c-4.244005 2.945718-7.075048 4.831715-9.845681 6.422833-1.416033-41.204217-15.915273-89.365735-16.211177-90.071192l-2.47473-7.075048c-4.71704-13.321772-10.668885-30.182092-10.668885-43.62161 0-5.245365 0.884637-9.903019 3.123874-13.675012 11.789016-19.808085 36.372502-24.81898 54.879229-25.584847h0.060409c38.140752-1.532756 47.394628 7.662758 54.761483 18.924472 5.423521 8.251492 8.254563 20.040507 8.254564 33.834291 0.002048 8.958997-1.178492 18.804678-3.595886 28.942167z" fill="#ff8a00" /><path d="M659.455869 681.297391c-8.254563 1.295215-13.853168 9.07572-12.498568 17.269873 5.07028 31.65751 5.776761 45.568016-7.898252 56.473419-6.483242 5.188027-7.545011 14.677396-2.356984 21.16371 5.188027 6.543651 14.677396 7.602349 21.160638 2.417393 28.826467-22.93196 23.759259-54.411314 18.864064-84.828899-1.296239-8.194154-9.076743-13.793783-17.270898-12.495496zM506.129042 851.187611c12.498568 0 22.636057 10.138512 22.636056 22.636057 0 12.495497-10.138512 22.636057-22.636056 22.636057H292.91209c-12.498568 0-22.636057-10.141584-22.636057-22.636057 0-12.498568 10.138512-22.636057 22.636057-22.636057h213.216952z" fill="#8a8a8a" /></svg>