<?xml version="1.0" encoding="utf-8"?>
<!-- Generator: Adobe Illustrator 18.0.0, SVG Export Plug-In . SVG Version: 6.00 Build 0)  -->
<!DOCTYPE svg PUBLIC "-//W3C//DTD SVG 1.1//EN" "http://www.w3.org/Graphics/SVG/1.1/DTD/svg11.dtd">
<svg version="1.1" id="图层_1" xmlns="http://www.w3.org/2000/svg" xmlns:xlink="http://www.w3.org/1999/xlink" x="0px" y="0px"
	 viewBox="0 0 269.1 200" enable-background="new 0 0 269.1 200" xml:space="preserve">
<path fill="#E3E3E3" d="M182.1,53.8c-19.1,0-39.2,3.3-47.6,10.5c-8.3-7.1-28.5-10.5-47.6-10.5c-24.8,0-49.9,5.6-49.9,18V196
	c-0.2,2.7,1.4,4.1,3,4c28.3-4.9,65.5-4.9,93.8,0c0.2,0,0.5,0.1,0.7,0.1c0.1,0,0.3-0.1,0.4-0.1c0.1,0,0.2,0,0.3,0
	c28.3-4.9,65.5-4.9,93.8,0c0.2,0,0.5,0.1,0.7,0.1c2.3-0.5,2.1-2.8,2.1-4V71.8C231.8,59.4,207,53.8,182.1,53.8L182.1,53.8L182.1,53.8
	 M140.6,176.8V75.7c0-2.9,13.2-9.9,41.5-9.9c28.3,0,38,7.1,38,9.9v111.7c0,0-26.4-7-81.6,0c-0.8,0-10.5-0.4-10.5-0.4
	c-12.8-1.8-26.8-2.7-41.1-2.7c0,0-24.6,1.1-38,3.1l0-111.7c0-2.9,9.7-9.9,38-9.9c28.3,0,41.7,7.1,41.7,9.9v101.7L140.6,176.8
	 M225.7,191.3L225.7,191.3z"/>
<path fill="#E3E3E3" d="M133.6,178.7c-9.2,0-15.2-3-16.4-3.7c-31.3-12.6-74.5,0-75,0.2l-1.6-10.9c0.5-0.1,11.5-3.4,26.8-5.1
	c14.2-1.5,34.7-1.9,52,5.2l0.4,0.2c0,0,3,1.7,7.9,2.5c6.7,1.1,13.6,0.3,20.7-2.4c0,0,11.2-3.9,26.5-5.5c14.1-1.5,35-1.4,53.8,7.9
	l-2.4,10.5c-17.7-8.6-37.4-8.8-50.8-7.3c-14.2,1.5-24.5,5-25.1,5.2C144.1,177.8,138.4,178.7,133.6,178.7L133.6,178.7z"/>
<path fill="#E3E3E3" d="M39.4,58.4l-2.3-10.2L134.4,0l2.3,10.2L39.4,58.4z"/>
<path fill="#E3E3E3" d="M132.1,10.3l2.5-10.2L232,48.1l-2.5,10.2L132.1,10.3z"/>
</svg>
